<svg width="72" height="32" viewBox="0 0 72 32" fill="none" xmlns="http://www.w3.org/2000/svg">
<g id="Frame" clip-path="url(#clip0_2_53)">
<path id="Vector" fill-rule="evenodd" clip-rule="evenodd" d="M57.544 9.31964V10.1635H60.48C60.59 10.1654 60.6789 10.2953 60.6802 10.456V14.5625C60.6789 14.7228 60.5896 14.8518 60.48 14.8518H57.7417C57.6321 14.8537 57.5438 14.9842 57.544 15.1443V30.8729C57.544 31.0325 57.4553 31.1621 57.3461 31.1621H53.9261C53.8167 31.1621 53.7282 31.0325 53.7282 30.8729V15.1477C53.7282 15.0701 53.7071 14.9957 53.6696 14.9408C53.6322 14.8861 53.5813 14.8552 53.5281 14.8552H51.7972C51.7443 14.8562 51.6934 14.8261 51.6558 14.7717C51.6182 14.7174 51.5971 14.6434 51.5971 14.5659V10.456C51.5971 10.2945 51.6867 10.1635 51.7972 10.1635H53.7282V9.31964C53.7282 3.43043 55.9153 -0.0602509 60.4894 0.262962C60.5957 0.271899 60.6792 0.399814 60.6802 0.55556V5.3187C60.6803 5.39906 60.6576 5.47587 60.6173 5.53074C60.5772 5.58562 60.5232 5.61355 60.4684 5.60787C58.6164 5.49561 57.544 6.48224 57.544 9.31964ZM28.4406 24.1602L31.5884 21.469C31.639 21.4226 31.7013 21.4117 31.758 21.4393C31.8148 21.4669 31.8601 21.5304 31.8815 21.612C32.6447 24.2453 34.0802 25.9293 36.5581 25.9293C39.0359 25.9293 39.8711 24.4155 39.8711 22.7279C39.8711 20.479 38.4752 19.6149 35.404 18.3051C32.2399 16.9645 29.1618 15.0184 29.1618 9.26529C29.1618 3.51211 32.419 0.266354 35.9671 0.266354C39.3011 0.266354 41.8697 2.71938 43.2797 6.81225C43.3257 6.95099 43.2914 7.1183 43.2005 7.19672L40.1131 9.8028C40.0652 9.84086 40.0087 9.84899 39.9565 9.82533C39.9044 9.80166 39.8611 9.74808 39.8362 9.67689C39.0963 7.53694 37.9749 6.06379 35.9671 6.06379C34.2501 6.06379 33.2449 7.36344 33.2449 9.09184C33.2449 10.9528 34.043 11.9463 37.1792 13.3309L37.1908 13.3362C40.4702 14.8488 43.952 16.4546 43.952 22.6326C43.952 28.2973 40.8483 31.7574 36.4394 31.7574C32.2818 31.7574 29.5247 28.8758 28.3638 24.5072C28.3317 24.3795 28.3635 24.2364 28.4406 24.1602ZM7.33979 13.5907C7.33979 16.2259 5.85605 18.3619 4.02574 18.3619C2.19542 18.3619 0.71167 16.2259 0.71167 13.5907C0.71167 10.9556 2.19542 8.81951 4.02574 8.81951C5.85605 8.81951 7.33979 10.9556 7.33979 13.5907ZM16.3858 13.5907C16.3858 16.2259 14.902 18.3619 13.0717 18.3619C11.2414 18.3619 9.75764 16.2259 9.75764 13.5907C9.75764 10.9556 11.2414 8.81951 13.0717 8.81951C14.902 8.81951 16.3858 10.9556 16.3858 13.5907ZM22.1035 18.3619C23.9339 18.3619 25.4176 16.2259 25.4176 13.5907C25.4176 10.9556 23.9339 8.81951 22.1035 8.81951C20.2732 8.81951 18.7894 10.9556 18.7894 13.5907C18.7894 16.2259 20.2732 18.3619 22.1035 18.3619ZM16.3858 26.5059C16.3858 29.1411 14.902 31.2773 13.0717 31.2773C11.2414 31.2773 9.75764 29.1411 9.75764 26.5059C9.75764 23.8709 11.2414 21.7347 13.0717 21.7347C14.902 21.7347 16.3858 23.8709 16.3858 26.5059ZM46.0739 1.49118C46.0866 1.47219 46.1007 1.45509 46.1158 1.44013C47.9886 -0.471918 50.0035 1.59323 50.0035 4.16194C49.9807 6.04947 48.9283 7.56261 47.6373 7.56416C45.7645 7.57096 44.3452 4.22998 46.0739 1.49118ZM45.9412 10.1635H49.3614C49.471 10.1654 49.5591 10.2958 49.5591 10.456V30.8696C49.5591 31.0291 49.4706 31.1586 49.3614 31.1586H45.9412C45.8888 31.1586 45.8385 31.1282 45.8014 31.0739C45.7643 31.0197 45.7435 30.9462 45.7435 30.8696V10.456C45.7432 10.301 45.826 10.1726 45.932 10.1635H45.9412ZM68.6209 15.1442C68.6209 14.984 68.709 14.8536 68.8186 14.8517H71.7642C71.8734 14.8517 71.9619 14.7222 71.9619 14.5624V10.4559C71.9619 10.2957 71.8738 10.1653 71.7642 10.1634H68.8186C68.7094 10.1634 68.6209 10.0339 68.6209 9.87407V4.3149C68.6201 4.2203 68.5882 4.13202 68.5351 4.07798C68.482 4.02395 68.4143 4.01081 68.3534 4.04272L64.9356 5.85612C64.8568 5.89893 64.8049 6.00897 64.8053 6.1317V9.87407C64.804 10.0344 64.7148 10.1634 64.6052 10.1634H62.4297C62.3199 10.1653 62.231 10.2951 62.2297 10.4559V14.5659C62.231 14.7261 62.3201 14.855 62.4297 14.855H64.6029C64.7129 14.8568 64.8017 14.9868 64.803 15.1477V23.8949C64.803 29.6684 66.5688 31.9752 71.7828 31.1926C71.8845 31.1753 71.9614 31.0498 71.9619 30.9001V26.4091C71.962 26.3293 71.9395 26.253 71.9 26.1983C71.8603 26.1436 71.807 26.1152 71.7525 26.1199C69.7005 26.2763 68.6209 26.1573 68.6209 23.8949V15.1442Z" fill="#655B6E"/>
</g>
<defs>
<clipPath id="clip0_2_53">
<rect width="72" height="32" fill="white"/>
</clipPath>
</defs>
</svg>
