<svg width="110" height="32" viewBox="0 0 110 32" fill="none" xmlns="http://www.w3.org/2000/svg">
<g id="Frame" clip-path="url(#clip0_2_49)">
<path id="Vector" fill-rule="evenodd" clip-rule="evenodd" d="M81.0774 11.28H84.002V11.2809V23.8148C84.002 26.3696 83.7711 27.4522 82.9251 28.6907C81.8473 30.316 79.9226 31.1667 77.7679 31.1667C73.9955 31.1667 71.6098 28.7677 71.6098 24.8993H74.4574C74.5344 25.9828 74.6114 26.4466 74.9193 26.9884C75.4582 27.917 76.6131 28.4588 77.7679 28.4588C79.9226 28.4588 81.0004 27.1433 81.0004 24.4345V22.6552C79.8456 23.9707 78.6138 24.5124 76.998 24.5124C73.6115 24.5124 71.0709 21.7256 71.0709 17.8572C71.0709 13.8329 73.6115 10.9701 77.075 10.9701C78.6148 10.9701 80.0766 11.5889 81.0774 12.7503V11.28ZM81.1544 17.6253C81.1544 15.2263 79.7686 13.5231 77.6139 13.5231V13.524C75.4582 13.524 74.0725 15.2263 74.0725 17.7023C74.0725 20.1783 75.4582 21.8036 77.6139 21.8036C79.6916 21.8036 81.1544 20.1013 81.1544 17.6253ZM27.1962 24.1256V11.28H30.1217V12.4405C31.1986 11.202 31.8915 10.8931 33.1233 10.8931C34.5091 10.8931 35.74 11.5119 36.5098 12.7503C37.4337 11.5889 38.7425 10.8931 40.2823 10.8931C43.1299 10.8931 44.5926 12.6724 44.5926 16.1549V24.2796H41.6671V17.1605C41.6671 14.6846 41.1282 13.7559 39.7424 13.7559C38.0506 13.7559 37.3567 14.9165 37.3567 17.6253V24.2026H34.4321V17.0835C34.4321 14.7625 33.8162 13.679 32.5074 13.679C30.8146 13.679 30.1217 14.8395 30.1217 17.5483V24.1256H27.1962ZM55.5991 12.7503V11.28H58.5247V24.0476H55.5991V22.7331C54.2143 23.9707 53.2134 24.4345 51.6737 24.4345C48.1332 24.4345 45.5925 21.5717 45.5925 17.5474C45.5925 13.7559 48.1332 10.8931 51.5976 10.8931C53.2134 10.8931 54.2913 11.4349 55.5991 12.7503ZM55.7531 17.6253C55.7531 15.2263 54.2913 13.5231 52.1356 13.5231V13.524C50.1348 13.524 48.5951 15.3033 48.5951 17.6253C48.5951 20.1013 50.0579 21.8036 52.1356 21.8036C54.2913 21.8036 55.7531 20.1013 55.7531 17.6253ZM60.9103 11.28H63.8359V24.1256H60.9103V11.28ZM61.6314 4.22683C61.8663 4.13013 62.1181 4.08125 62.3722 4.08304H62.3731C62.6272 4.08112 62.8791 4.12991 63.1141 4.22655C63.3491 4.3232 63.5625 4.46575 63.7417 4.64587C63.921 4.82599 64.0625 5.04005 64.1579 5.27553C64.2534 5.511 64.301 5.76316 64.2978 6.01724C64.3011 6.2714 64.2537 6.52367 64.1582 6.75925C64.0628 6.99484 63.9213 7.20902 63.7421 7.38924C63.5628 7.56946 63.3494 7.71209 63.1144 7.8088C62.8793 7.9055 62.6273 7.95432 62.3731 7.9524C62.1189 7.95432 61.8669 7.9055 61.6319 7.8088C61.3968 7.71209 61.1834 7.56946 61.0042 7.38924C60.8249 7.20902 60.6834 6.99484 60.588 6.75925C60.4926 6.52367 60.4451 6.2714 60.4484 6.01724C60.4452 5.76324 60.4928 5.51116 60.5882 5.27575C60.6836 5.04034 60.825 4.82632 61.0042 4.64621C61.1833 4.46611 61.3965 4.32353 61.6314 4.22683ZM69.4541 0.833374H66.5295V24.0476H69.4541V0.833374ZM85.7728 11.28H88.6974V18.6309C88.6974 20.798 89.4672 21.8036 91.161 21.8036C92.9307 21.8036 93.7006 20.798 93.7006 18.6309V11.28H96.6262V18.7088C96.6262 20.72 96.3182 21.8036 95.3174 22.8871C94.2405 23.9707 92.8547 24.5124 91.161 24.5124C89.5442 24.5124 88.0824 23.9707 87.0815 22.8871C86.1577 21.8036 85.7728 20.72 85.7728 18.7088V11.28ZM98.6269 24.1256V11.28H101.475V12.4405C102.629 11.28 103.553 10.8931 104.939 10.8931C108.095 10.8931 109.557 12.6724 109.557 16.2319V24.1256H106.632V16.9286C106.632 14.4526 106.094 13.601 104.246 13.601C102.245 13.601 101.552 14.7615 101.552 17.9342V24.1256H98.6269ZM7.67262 15.7593C7.67262 13.2082 9.75986 11.198 12.233 11.198C14.7061 11.198 16.7924 13.2082 16.7924 15.7593C16.7924 18.3094 14.7061 20.3196 12.233 20.3196C11.6326 20.3251 11.0371 20.2108 10.4814 19.9836C9.92562 19.7564 9.42072 19.4206 8.99616 18.9961C8.5716 18.5715 8.2359 18.0666 8.00865 17.5109C7.7814 16.9551 7.66717 16.3597 7.67262 15.7593ZM12.156 8.64788C8.29138 8.64788 5.12251 11.8167 5.12251 15.6813L5.12156 15.6832C5.11842 16.6078 5.2982 17.5238 5.65056 18.3785C6.00291 19.2333 6.52087 20.0099 7.17462 20.6637C7.82836 21.3174 8.60498 21.8354 9.45974 22.1877C10.3145 22.5401 11.2305 22.7199 12.155 22.7167C14.7052 22.7167 16.9473 21.4032 18.1839 19.3929C18.5707 19.9337 19.2655 20.4755 20.3481 20.4755C22.8982 20.4755 24.1348 18.3103 24.1348 15.6823C24.1348 9.11171 18.8017 3.70068 12.233 3.70068C5.58539 3.70068 0.253247 9.11076 0.253247 15.6804C0.247724 17.2552 0.55376 18.8156 1.15374 20.2717C1.75371 21.7278 2.63578 23.0508 3.74915 24.1647C4.86252 25.2785 6.18521 26.1611 7.64106 26.7616C9.09692 27.3622 10.6572 27.6688 12.232 27.6639C15.7108 27.6639 18.9566 26.1175 21.0429 23.6434L19.1115 22.02C17.4111 23.9523 14.938 25.1119 12.156 25.1119C6.97688 25.1119 2.72732 20.8614 2.72732 15.6813C2.72732 10.5022 6.97688 6.25079 12.156 6.25079C17.3332 6.25079 21.5847 10.5022 21.5847 15.6813C21.5847 16.2231 21.4307 17.6906 20.2711 17.6906C19.5754 17.6906 19.0336 17.1498 19.1115 16.455C19.1885 16.2231 19.1885 15.9132 19.1885 15.6813C19.1885 11.8167 16.0197 8.64788 12.156 8.64788ZM14.3193 15.6813C14.3193 14.5219 13.3919 13.5943 12.2325 13.5941C12.2327 13.5941 12.2328 13.5941 12.233 13.5941H12.232C12.2322 13.5941 12.2323 13.5941 12.2325 13.5941C11.0732 13.5943 10.1457 14.5219 10.1457 15.6813C10.1446 15.9557 10.1978 16.2277 10.3023 16.4814C10.4068 16.7352 10.5605 16.9657 10.7546 17.1597C10.9486 17.3538 11.1791 17.5075 11.4329 17.612C11.6866 17.7165 11.9586 17.7697 12.233 17.7686C13.3916 17.7686 14.3193 16.8409 14.3193 15.6813Z" fill="#655B6E"/>
</g>
<defs>
<clipPath id="clip0_2_49">
<rect width="110" height="32" fill="white"/>
</clipPath>
</defs>
</svg>
